<?xml version="1.0" encoding="utf-8"?>
<!DOCTYPE svg
  PUBLIC '-//W3C//DTD SVG 1.0//EN'
  'http://www.w3.org/TR/2001/REC-SVG-20010904/DTD/svg10.dtd'>
<svg width="1500" height="600" preserveAspectRatio="xMinYMin meet" viewBox="0 0 1500 600" xmlns="http://www.w3.org/2000/svg" version="1.0" fill-rule="evenodd" xmlns:xlink="http://www.w3.org/1999/xlink">
	<title>...</title>
	<desc>...</desc>
	<clipPath id="clip">
		<rect x="0" y="0" width="1500" height="600"/>
	</clipPath>
	<g id="group" transform="scale(1,-1) translate(0,-600)" style="clip-path: url(#clip)">
		<g transform="">
			<rect x="0" y="0" width="1500" height="600" style="stroke: rgb(100%,100%,100%); stroke-linecap: butt; stroke-width: 0; fill: rgb(100%,100%,100%); fill-rule: evenodd;"/>
			<text x="644.3805" y="540.86" style="font-family: Helvetica-Bold; font-size: 21px;fill: rgb(12%,16%,20%); stroke:none;" transform="translate(0,1081) scale(1,-1)">Relational Placement</text>
			<rect x="40" y="464" width="165" height="64" style="stroke: rgb(17%,17%,17%); stroke-linecap: butt; stroke-width: 1.4; fill: rgb(95%,95%,95%); fill-rule: evenodd;"/>
			<text x="90.608" y="499.36" style="font-family: Helvetica-Bold; font-size: 14px;fill: rgb(12%,16%,20%); stroke:none;" transform="translate(0,998) scale(1,-1)">Concept /</text>
			<text x="90.608" y="483.12" style="font-family: Helvetica-Bold; font-size: 14px;fill: rgb(12%,16%,20%); stroke:none;" transform="translate(0,966) scale(1,-1)">argument</text>
			<rect x="205.0" y="464" width="209.16666666666663" height="64" style="stroke: rgb(17%,17%,17%); stroke-linecap: butt; stroke-width: 1.4; fill: rgb(95%,95%,95%); fill-rule: evenodd;"/>
			<text x="241.12533333333332" y="491.58" style="font-family: Helvetica-Bold; font-size: 13px;fill: rgb(12%,16%,20%); stroke:none;" transform="translate(0,983) scale(1,-1)">Green pen + red block</text>
			<rect x="414.16666666666663" y="464" width="209.16666666666663" height="64" style="stroke: rgb(17%,17%,17%); stroke-linecap: butt; stroke-width: 1.4; fill: rgb(95%,95%,95%); fill-rule: evenodd;"/>
			<text x="442.3425" y="491.58" style="font-family: Helvetica-Bold; font-size: 13px;fill: rgb(12%,16%,20%); stroke:none;" transform="translate(0,983) scale(1,-1)">Green pen + pink marker</text>
			<rect x="623.3333333333333" y="464" width="209.16666666666663" height="64" style="stroke: rgb(17%,17%,17%); stroke-linecap: butt; stroke-width: 1.4; fill: rgb(95%,95%,95%); fill-rule: evenodd;"/>
			<text x="656.2086666666667" y="491.58" style="font-family: Helvetica-Bold; font-size: 13px;fill: rgb(12%,16%,20%); stroke:none;" transform="translate(0,983) scale(1,-1)">Green pen + blue block</text>
			<rect x="832.5" y="464" width="209.16666666666674" height="64" style="stroke: rgb(17%,17%,17%); stroke-linecap: butt; stroke-width: 1.4; fill: rgb(95%,95%,95%); fill-rule: evenodd;"/>
			<text x="861.7613333333334" y="491.58" style="font-family: Helvetica-Bold; font-size: 13px;fill: rgb(12%,16%,20%); stroke:none;" transform="translate(0,983) scale(1,-1)">Red block + pink marker</text>
			<rect x="1041.6666666666665" y="464" width="209.16666666666674" height="64" style="stroke: rgb(17%,17%,17%); stroke-linecap: butt; stroke-width: 1.4; fill: rgb(95%,95%,95%); fill-rule: evenodd;"/>
			<text x="1075.6274999999998" y="491.58" style="font-family: Helvetica-Bold; font-size: 13px;fill: rgb(12%,16%,20%); stroke:none;" transform="translate(0,983) scale(1,-1)">Red block + blue block</text>
			<rect x="1250.8333333333333" y="464" width="209.16666666666674" height="64" style="stroke: rgb(17%,17%,17%); stroke-linecap: butt; stroke-width: 1.4; fill: rgb(95%,95%,95%); fill-rule: evenodd;"/>
			<text x="1297.4301666666665" y="499.11999999999995" style="font-family: Helvetica-Bold; font-size: 13px;fill: rgb(12%,16%,20%); stroke:none;" transform="translate(0,998) scale(1,-1)">Pink marker + blue</text>
			<text x="1338.4386666666664" y="484.03999999999996" style="font-family: Helvetica-Bold; font-size: 13px;fill: rgb(12%,16%,20%); stroke:none;" transform="translate(0,968) scale(1,-1)">block</text>
			<rect x="40" y="358.0" width="165" height="106.0" style="stroke: rgb(17%,17%,17%); stroke-linecap: butt; stroke-width: 1.4; fill: rgb(95%,95%,95%); fill-rule: evenodd;"/>
			<text x="103.3375" y="405.9" style="font-family: Helvetica-Bold; font-size: 15px;fill: rgb(12%,16%,20%); stroke:none;" transform="translate(0,811) scale(1,-1)">Front</text>
			<rect x="205.0" y="358.0" width="209.16666666666663" height="106.0" style="stroke: rgb(17%,17%,17%); stroke-linecap: butt; stroke-width: 1.4; fill: rgb(90%,69%,64%); fill-rule: evenodd;"/>
			<text x="282.3533333333333" y="406.24" style="font-family: Helvetica; font-size: 14px;fill: rgb(12%,16%,20%); stroke:none;" transform="translate(0,812) scale(1,-1)">Withheld</text>
			<rect x="414.16666666666663" y="358.0" width="209.16666666666663" height="106.0" style="stroke: rgb(17%,17%,17%); stroke-linecap: butt; stroke-width: 1.4; fill: rgb(72%,86%,66%); fill-rule: evenodd;"/>
			<text x="488.405" y="406.24" style="font-family: Helvetica; font-size: 14px;fill: rgb(12%,16%,20%); stroke:none;" transform="translate(0,812) scale(1,-1)">Observed</text>
			<rect x="623.3333333333333" y="358.0" width="209.16666666666663" height="106.0" style="stroke: rgb(17%,17%,17%); stroke-linecap: butt; stroke-width: 1.4; fill: rgb(72%,86%,66%); fill-rule: evenodd;"/>
			<text x="697.5716666666666" y="406.24" style="font-family: Helvetica; font-size: 14px;fill: rgb(12%,16%,20%); stroke:none;" transform="translate(0,812) scale(1,-1)">Observed</text>
			<rect x="832.5" y="358.0" width="209.16666666666674" height="106.0" style="stroke: rgb(17%,17%,17%); stroke-linecap: butt; stroke-width: 1.4; fill: rgb(72%,86%,66%); fill-rule: evenodd;"/>
			<text x="906.7383333333333" y="406.24" style="font-family: Helvetica; font-size: 14px;fill: rgb(12%,16%,20%); stroke:none;" transform="translate(0,812) scale(1,-1)">Observed</text>
			<rect x="1041.6666666666665" y="358.0" width="209.16666666666674" height="106.0" style="stroke: rgb(17%,17%,17%); stroke-linecap: butt; stroke-width: 1.4; fill: rgb(72%,86%,66%); fill-rule: evenodd;"/>
			<text x="1115.9049999999997" y="406.24" style="font-family: Helvetica; font-size: 14px;fill: rgb(12%,16%,20%); stroke:none;" transform="translate(0,812) scale(1,-1)">Observed</text>
			<rect x="1250.8333333333333" y="358.0" width="209.16666666666674" height="106.0" style="stroke: rgb(17%,17%,17%); stroke-linecap: butt; stroke-width: 1.4; fill: rgb(72%,86%,66%); fill-rule: evenodd;"/>
			<text x="1325.0716666666665" y="406.24" style="font-family: Helvetica; font-size: 14px;fill: rgb(12%,16%,20%); stroke:none;" transform="translate(0,812) scale(1,-1)">Observed</text>
			<rect x="40" y="252.0" width="165" height="106.0" style="stroke: rgb(17%,17%,17%); stroke-linecap: butt; stroke-width: 1.4; fill: rgb(95%,95%,95%); fill-rule: evenodd;"/>
			<text x="97.0825" y="299.9" style="font-family: Helvetica-Bold; font-size: 15px;fill: rgb(12%,16%,20%); stroke:none;" transform="translate(0,599) scale(1,-1)">Behind</text>
			<rect x="205.0" y="252.0" width="209.16666666666663" height="106.0" style="stroke: rgb(17%,17%,17%); stroke-linecap: butt; stroke-width: 1.4; fill: rgb(90%,69%,64%); fill-rule: evenodd;"/>
			<text x="282.3533333333333" y="300.24" style="font-family: Helvetica; font-size: 14px;fill: rgb(12%,16%,20%); stroke:none;" transform="translate(0,600) scale(1,-1)">Withheld</text>
			<rect x="414.16666666666663" y="252.0" width="209.16666666666663" height="106.0" style="stroke: rgb(17%,17%,17%); stroke-linecap: butt; stroke-width: 1.4; fill: rgb(72%,86%,66%); fill-rule: evenodd;"/>
			<text x="488.405" y="300.24" style="font-family: Helvetica; font-size: 14px;fill: rgb(12%,16%,20%); stroke:none;" transform="translate(0,600) scale(1,-1)">Observed</text>
			<rect x="623.3333333333333" y="252.0" width="209.16666666666663" height="106.0" style="stroke: rgb(17%,17%,17%); stroke-linecap: butt; stroke-width: 1.4; fill: rgb(72%,86%,66%); fill-rule: evenodd;"/>
			<text x="697.5716666666666" y="300.24" style="font-family: Helvetica; font-size: 14px;fill: rgb(12%,16%,20%); stroke:none;" transform="translate(0,600) scale(1,-1)">Observed</text>
			<rect x="832.5" y="252.0" width="209.16666666666674" height="106.0" style="stroke: rgb(17%,17%,17%); stroke-linecap: butt; stroke-width: 1.4; fill: rgb(72%,86%,66%); fill-rule: evenodd;"/>
			<text x="906.7383333333333" y="300.24" style="font-family: Helvetica; font-size: 14px;fill: rgb(12%,16%,20%); stroke:none;" transform="translate(0,600) scale(1,-1)">Observed</text>
			<rect x="1041.6666666666665" y="252.0" width="209.16666666666674" height="106.0" style="stroke: rgb(17%,17%,17%); stroke-linecap: butt; stroke-width: 1.4; fill: rgb(72%,86%,66%); fill-rule: evenodd;"/>
			<text x="1115.9049999999997" y="300.24" style="font-family: Helvetica; font-size: 14px;fill: rgb(12%,16%,20%); stroke:none;" transform="translate(0,600) scale(1,-1)">Observed</text>
			<rect x="1250.8333333333333" y="252.0" width="209.16666666666674" height="106.0" style="stroke: rgb(17%,17%,17%); stroke-linecap: butt; stroke-width: 1.4; fill: rgb(72%,86%,66%); fill-rule: evenodd;"/>
			<text x="1325.0716666666665" y="300.24" style="font-family: Helvetica; font-size: 14px;fill: rgb(12%,16%,20%); stroke:none;" transform="translate(0,600) scale(1,-1)">Observed</text>
			<rect x="40" y="146.0" width="165" height="106.0" style="stroke: rgb(17%,17%,17%); stroke-linecap: butt; stroke-width: 1.4; fill: rgb(95%,95%,95%); fill-rule: evenodd;"/>
			<text x="108.7525" y="193.9" style="font-family: Helvetica-Bold; font-size: 15px;fill: rgb(12%,16%,20%); stroke:none;" transform="translate(0,387) scale(1,-1)">Left</text>
			<rect x="205.0" y="146.0" width="209.16666666666663" height="106.0" style="stroke: rgb(17%,17%,17%); stroke-linecap: butt; stroke-width: 1.4; fill: rgb(90%,69%,64%); fill-rule: evenodd;"/>
			<text x="282.3533333333333" y="194.24" style="font-family: Helvetica; font-size: 14px;fill: rgb(12%,16%,20%); stroke:none;" transform="translate(0,388) scale(1,-1)">Withheld</text>
			<rect x="414.16666666666663" y="146.0" width="209.16666666666663" height="106.0" style="stroke: rgb(17%,17%,17%); stroke-linecap: butt; stroke-width: 1.4; fill: rgb(72%,86%,66%); fill-rule: evenodd;"/>
			<text x="488.405" y="194.24" style="font-family: Helvetica; font-size: 14px;fill: rgb(12%,16%,20%); stroke:none;" transform="translate(0,388) scale(1,-1)">Observed</text>
			<rect x="623.3333333333333" y="146.0" width="209.16666666666663" height="106.0" style="stroke: rgb(17%,17%,17%); stroke-linecap: butt; stroke-width: 1.4; fill: rgb(72%,86%,66%); fill-rule: evenodd;"/>
			<text x="697.5716666666666" y="194.24" style="font-family: Helvetica; font-size: 14px;fill: rgb(12%,16%,20%); stroke:none;" transform="translate(0,388) scale(1,-1)">Observed</text>
			<rect x="832.5" y="146.0" width="209.16666666666674" height="106.0" style="stroke: rgb(17%,17%,17%); stroke-linecap: butt; stroke-width: 1.4; fill: rgb(72%,86%,66%); fill-rule: evenodd;"/>
			<text x="906.7383333333333" y="194.24" style="font-family: Helvetica; font-size: 14px;fill: rgb(12%,16%,20%); stroke:none;" transform="translate(0,388) scale(1,-1)">Observed</text>
			<rect x="1041.6666666666665" y="146.0" width="209.16666666666674" height="106.0" style="stroke: rgb(17%,17%,17%); stroke-linecap: butt; stroke-width: 1.4; fill: rgb(72%,86%,66%); fill-rule: evenodd;"/>
			<text x="1115.9049999999997" y="194.24" style="font-family: Helvetica; font-size: 14px;fill: rgb(12%,16%,20%); stroke:none;" transform="translate(0,388) scale(1,-1)">Observed</text>
			<rect x="1250.8333333333333" y="146.0" width="209.16666666666674" height="106.0" style="stroke: rgb(17%,17%,17%); stroke-linecap: butt; stroke-width: 1.4; fill: rgb(72%,86%,66%); fill-rule: evenodd;"/>
			<text x="1325.0716666666665" y="194.24" style="font-family: Helvetica; font-size: 14px;fill: rgb(12%,16%,20%); stroke:none;" transform="translate(0,388) scale(1,-1)">Observed</text>
			<rect x="40" y="40.0" width="165" height="106.0" style="stroke: rgb(17%,17%,17%); stroke-linecap: butt; stroke-width: 1.4; fill: rgb(95%,95%,95%); fill-rule: evenodd;"/>
			<text x="103.3375" y="87.9" style="font-family: Helvetica-Bold; font-size: 15px;fill: rgb(12%,16%,20%); stroke:none;" transform="translate(0,175) scale(1,-1)">Right</text>
			<rect x="205.0" y="40.0" width="209.16666666666663" height="106.0" style="stroke: rgb(17%,17%,17%); stroke-linecap: butt; stroke-width: 1.4; fill: rgb(90%,69%,64%); fill-rule: evenodd;"/>
			<text x="282.3533333333333" y="88.24" style="font-family: Helvetica; font-size: 14px;fill: rgb(12%,16%,20%); stroke:none;" transform="translate(0,176) scale(1,-1)">Withheld</text>
			<rect x="414.16666666666663" y="40.0" width="209.16666666666663" height="106.0" style="stroke: rgb(17%,17%,17%); stroke-linecap: butt; stroke-width: 1.4; fill: rgb(72%,86%,66%); fill-rule: evenodd;"/>
			<text x="488.405" y="88.24" style="font-family: Helvetica; font-size: 14px;fill: rgb(12%,16%,20%); stroke:none;" transform="translate(0,176) scale(1,-1)">Observed</text>
			<rect x="623.3333333333333" y="40.0" width="209.16666666666663" height="106.0" style="stroke: rgb(17%,17%,17%); stroke-linecap: butt; stroke-width: 1.4; fill: rgb(72%,86%,66%); fill-rule: evenodd;"/>
			<text x="697.5716666666666" y="88.24" style="font-family: Helvetica; font-size: 14px;fill: rgb(12%,16%,20%); stroke:none;" transform="translate(0,176) scale(1,-1)">Observed</text>
			<rect x="832.5" y="40.0" width="209.16666666666674" height="106.0" style="stroke: rgb(17%,17%,17%); stroke-linecap: butt; stroke-width: 1.4; fill: rgb(72%,86%,66%); fill-rule: evenodd;"/>
			<text x="906.7383333333333" y="88.24" style="font-family: Helvetica; font-size: 14px;fill: rgb(12%,16%,20%); stroke:none;" transform="translate(0,176) scale(1,-1)">Observed</text>
			<rect x="1041.6666666666665" y="40.0" width="209.16666666666674" height="106.0" style="stroke: rgb(17%,17%,17%); stroke-linecap: butt; stroke-width: 1.4; fill: rgb(72%,86%,66%); fill-rule: evenodd;"/>
			<text x="1115.9049999999997" y="88.24" style="font-family: Helvetica; font-size: 14px;fill: rgb(12%,16%,20%); stroke:none;" transform="translate(0,176) scale(1,-1)">Observed</text>
			<rect x="1250.8333333333333" y="40.0" width="209.16666666666674" height="106.0" style="stroke: rgb(17%,17%,17%); stroke-linecap: butt; stroke-width: 1.4; fill: rgb(72%,86%,66%); fill-rule: evenodd;"/>
			<text x="1325.0716666666665" y="88.24" style="font-family: Helvetica; font-size: 14px;fill: rgb(12%,16%,20%); stroke:none;" transform="translate(0,176) scale(1,-1)">Observed</text>
		</g>
	</g>
</svg>
